<svg width="20" height="18" viewBox="0 0 20 18" fill="none" xmlns="http://www.w3.org/2000/svg">
<path d="M8.7413 11.3817V11.3817C8.7413 13.0385 10.0844 14.3817 11.7413 14.3817H13.9913L16.9913 16.8817V14.3817V14.3817C18.0959 14.3817 18.9913 13.4862 18.9913 12.3817V8.13166C18.9913 6.47481 17.6482 5.13166 15.9913 5.13166V5.13166M4.49084 11.3804V11.3804C4.02642 11.3804 3.79421 11.3804 3.59927 11.3547C2.25307 11.1775 1.19374 10.1182 1.01651 8.77195C0.990845 8.577 0.990845 8.34479 0.990845 7.88037V6.13037C0.990845 4.02368 0.990845 2.97033 1.49644 2.21366C1.71531 1.88609 1.99656 1.60484 2.32413 1.38596C3.0808 0.880371 4.13415 0.880371 6.24084 0.880371H10.7408C12.8475 0.880371 13.9009 0.880371 14.6576 1.38596C14.9851 1.60484 15.2664 1.88609 15.4853 2.21366C15.9908 2.97033 15.9908 4.02368 15.9908 6.13037V6.13037C15.9908 8.23706 15.9908 9.29041 15.4853 10.0471C15.2664 10.3747 14.9851 10.6559 14.6576 10.8748C13.9009 11.3804 12.8475 11.3804 10.7408 11.3804H8.49084L3.49084 13.8804L4.49084 11.3804Z" stroke="black" stroke-opacity="0.8" stroke-width="1.5" stroke-linecap="round" stroke-linejoin="round"/>
</svg>
