<svg width="24" height="25" viewBox="0 0 24 25" fill="none" xmlns="http://www.w3.org/2000/svg">
<path d="M8.99084 5.98853V5.98853C8.06184 5.98853 7.59734 5.98853 7.20867 6.05008C5.06921 6.38894 3.39126 8.06689 3.0524 10.2064C2.99084 10.595 2.99084 11.0595 2.99084 11.9885V13.9885C2.99084 16.7888 2.99084 18.1889 3.53581 19.2585C4.01518 20.1993 4.78008 20.9642 5.72089 21.4436C6.79045 21.9885 8.19058 21.9885 10.9908 21.9885H12.9908C15.7911 21.9885 17.1912 21.9885 18.2608 21.4436C19.2016 20.9642 19.9665 20.1993 20.4459 19.2585C20.9908 18.1889 20.9908 16.7888 20.9908 13.9885V11.9885C20.9908 11.0595 20.9908 10.595 20.9293 10.2064C20.5904 8.06689 18.9125 6.38894 16.773 6.05008C16.3844 5.98853 15.9199 5.98853 14.9908 5.98853V5.98853M8.99084 5.98853V7.48853M8.99084 5.98853V3.98853M8.99084 5.98853H14.9908M14.9908 5.98853V3.98853M14.9908 5.98853V7.48853M10.1021 12.6874H9.52995C8.52598 12.6874 8.024 12.6874 7.87671 12.9195C7.83158 12.9906 7.80515 13.0719 7.79986 13.156C7.7826 13.4303 8.18872 13.7254 9.00094 14.3155L9.46385 14.6518C9.68983 14.816 9.80282 14.8981 9.85748 15.0142C9.87534 15.0522 9.88835 15.0922 9.89621 15.1334C9.92027 15.2595 9.87711 15.3924 9.79079 15.658L9.61398 16.2022C9.30373 17.157 9.14861 17.6345 9.32383 17.8463C9.37751 17.9111 9.44671 17.9614 9.52502 17.9924C9.78059 18.0936 10.1867 17.7986 10.9989 17.2084L11.4618 16.8721C11.6878 16.7079 11.8008 16.6258 11.9282 16.6098C11.9698 16.6045 12.0119 16.6045 12.0535 16.6098C12.1809 16.6258 12.2939 16.7079 12.5199 16.8721L12.9828 17.2084C13.795 17.7986 14.2011 18.0936 14.4567 17.9924C14.535 17.9614 14.6042 17.9111 14.6579 17.8463C14.8331 17.6345 14.678 17.157 14.3677 16.2022L14.1909 15.658C14.1046 15.3924 14.0614 15.2595 14.0855 15.1334C14.0933 15.0922 14.1063 15.0522 14.1242 15.0142C14.1789 14.8981 14.2919 14.816 14.5178 14.6518L14.9807 14.3155C15.793 13.7254 16.1991 13.4303 16.1818 13.156C16.1765 13.0719 16.1501 12.9906 16.105 12.9195C15.9577 12.6874 15.4557 12.6874 14.4517 12.6874H13.8796C13.6002 12.6874 13.4606 12.6874 13.3481 12.6255C13.3113 12.6053 13.2772 12.5806 13.2467 12.5519C13.1531 12.464 13.1099 12.3311 13.0236 12.0655L12.8468 11.5213C12.5366 10.5665 12.3814 10.0891 12.1152 10.0207C12.0336 9.99976 11.9481 9.99976 11.8665 10.0207C11.6003 10.0891 11.4451 10.5665 11.1349 11.5213L10.9581 12.0655C10.8718 12.3311 10.8286 12.464 10.735 12.5519C10.7044 12.5806 10.6704 12.6053 10.6336 12.6255C10.5211 12.6874 10.3815 12.6874 10.1021 12.6874Z" stroke="black" stroke-opacity="0.8" stroke-width="1.5" stroke-linecap="round" stroke-linejoin="round"/>
</svg>
