<svg width="24" height="25" viewBox="0 0 24 25" fill="none" xmlns="http://www.w3.org/2000/svg">
<path d="M4.99084 5.17602C4.99084 4.48567 5.55049 3.92603 6.24084 3.92603V3.92603C6.9312 3.92603 7.49084 4.48567 7.49084 5.17603V20.676C7.49084 21.3664 6.9312 21.926 6.24084 21.926V21.926C5.55049 21.926 4.99084 21.3664 4.99084 20.676V5.17602Z" stroke="black" stroke-opacity="0.8" stroke-width="1.5" stroke-linejoin="round"/>
<path d="M7.49084 5.92603C10.6407 6.626 13.0556 6.83601 15.593 6.55606C17.0959 6.39025 17.8473 6.30735 18.2907 6.5868C18.4447 6.68389 18.5511 6.77917 18.6645 6.92163C18.9908 7.33168 18.9908 8.01583 18.9908 9.38412V12.8179C18.9908 13.7248 18.9908 14.1782 18.7618 14.5436C18.6913 14.6561 18.591 14.7751 18.4922 14.8638C18.1711 15.1517 17.7571 15.2231 16.9292 15.3661C13.8715 15.8941 11.1872 15.7474 7.49084 14.926V5.92603Z" stroke="black" stroke-opacity="0.8" stroke-width="1.5" stroke-linejoin="round"/>
</svg>
