<svg width="18" height="18" viewBox="0 0 18 18" fill="none" xmlns="http://www.w3.org/2000/svg">
<path fill-rule="evenodd" clip-rule="evenodd" d="M12.5 13C13.0523 13 13.5 12.5523 13.5 12C13.5 11.4477 13.0523 11 12.5 11C11.9477 11 11.5 11.4477 11.5 12C11.5 12.5523 11.9477 13 12.5 13Z" stroke="#202224" stroke-width="1.2" stroke-linecap="round" stroke-linejoin="round"/>
<path fill-rule="evenodd" clip-rule="evenodd" d="M13.3493 8.13336L13.644 9.10203C13.7449 9.43564 14.087 9.63407 14.4267 9.55603L15.408 9.3287C15.79 9.24203 16.1838 9.41467 16.3789 9.7543C16.5739 10.0939 16.5246 10.5211 16.2573 10.8074L15.5707 11.548C15.3327 11.8039 15.3327 12.2001 15.5707 12.456L16.2573 13.1967C16.5246 13.483 16.5739 13.9101 16.3789 14.2498C16.1838 14.5894 15.79 14.762 15.408 14.6754L14.4267 14.448C14.087 14.37 13.7449 14.5684 13.644 14.902L13.3493 15.8667C13.2369 16.2418 12.8916 16.4988 12.5 16.4988C12.1084 16.4988 11.7631 16.2418 11.6507 15.8667L11.3553 14.898C11.2547 14.5645 10.9129 14.366 10.5733 14.444L9.59134 14.6714C9.20938 14.758 8.81556 14.5854 8.62048 14.2458C8.4254 13.9061 8.4747 13.479 8.74201 13.1927L9.42867 12.452C9.66664 12.1961 9.66664 11.7999 9.42867 11.544L8.74201 10.8034C8.4747 10.5171 8.4254 10.0899 8.62048 9.7503C8.81556 9.41067 9.20938 9.23803 9.59134 9.3247L10.5733 9.55203C10.9129 9.63002 11.2547 9.43154 11.3553 9.09803L11.6507 8.12936C11.764 7.75448 12.1099 7.49835 12.5015 7.49927C12.8931 7.50019 13.2378 7.75795 13.3493 8.13336Z" stroke="#202224" stroke-width="1.2" stroke-linecap="round" stroke-linejoin="round"/>
<path d="M16.424 7.46674C16.0122 4.64872 13.9342 2.36111 11.1686 1.68125C8.403 1.00138 5.5012 2.06483 3.82982 4.37074C2.15843 6.67665 2.05069 9.7653 3.55733 12.1821L1.5 16.5001L5.816 14.4441C6.04325 14.5854 6.27829 14.7139 6.52 14.8287" stroke="#202224" stroke-width="1.2" stroke-linecap="round" stroke-linejoin="round"/>
</svg>
