<svg width="24" height="24" viewBox="0 0 24 24" fill="none" xmlns="http://www.w3.org/2000/svg">
<path d="M2.99084 11.9929C2.99084 9.66321 2.99084 8.49836 3.37145 7.5795C3.87892 6.35436 4.85229 5.38099 6.07743 4.87352C6.99628 4.49292 8.16114 4.49292 10.4908 4.49292H13.4908C15.8206 4.49292 16.9854 4.49292 17.9043 4.87352C19.1294 5.38099 20.1028 6.35436 20.6102 7.5795C20.9908 8.49836 20.9908 9.66321 20.9908 11.9929V11.9929C20.9908 14.3226 20.9908 15.4875 20.6102 16.4063C20.1028 17.6315 19.1294 18.6048 17.9043 19.1123C16.9854 19.4929 15.8206 19.4929 13.4908 19.4929H10.4908C8.16114 19.4929 6.99628 19.4929 6.07743 19.1123C4.85229 18.6048 3.87892 17.6315 3.37145 16.4063C2.99084 15.4875 2.99084 14.3226 2.99084 11.9929V11.9929Z" stroke="black" stroke-opacity="0.8" stroke-width="1.5" stroke-linejoin="round"/>
<path d="M2.99084 7.99292L6.4657 10.6955C8.81533 12.5229 9.99014 13.4366 11.3321 13.615C11.7696 13.6732 12.2129 13.6732 12.6504 13.615C13.9923 13.4365 15.1671 12.5227 17.5166 10.6952L20.9908 7.99292" stroke="black" stroke-opacity="0.8" stroke-width="1.5" stroke-linejoin="round"/>
</svg>
