<svg width="24" height="25" viewBox="0 0 24 25" fill="none" xmlns="http://www.w3.org/2000/svg">
<path d="M2.99085 12.9714V9.37144C2.99085 7.1216 2.99085 5.99668 3.56379 5.20808C3.74883 4.9534 3.97281 4.72942 4.22749 4.54438C5.01609 3.97144 6.14101 3.97144 8.39084 3.97144H9.39006C9.93197 3.97144 10.2029 3.97144 10.4633 4.01769C10.7821 4.07433 11.0896 4.1822 11.3739 4.33713C11.6061 4.46365 11.8177 4.63291 12.2408 4.97144V4.97144C12.664 5.30996 12.8756 5.47922 13.1078 5.60574C13.3921 5.76067 13.6996 5.86855 14.0184 5.92518C14.2788 5.97144 14.5497 5.97144 15.0916 5.97144H15.5908C17.8407 5.97144 18.9656 5.97144 19.7542 6.54438C20.0089 6.72942 20.2329 6.9534 20.4179 7.20808C20.9908 7.99668 20.9908 9.1216 20.9908 11.3714V12.9714M9.39006 7.97144H8.39084C6.14101 7.97144 5.01609 7.97144 4.22749 8.54438C3.9728 8.72942 3.74883 8.9534 3.56379 9.20808C2.99084 9.99668 2.99084 11.1216 2.99084 13.3714V16.5714C2.99084 18.8213 2.99084 19.9462 3.56379 20.7348C3.74883 20.9895 3.9728 21.2134 4.22749 21.3985C5.01609 21.9714 6.14101 21.9714 8.39084 21.9714H15.5908C17.8407 21.9714 18.9656 21.9714 19.7542 21.3985C20.0089 21.2134 20.2329 20.9895 20.4179 20.7348C20.9908 19.9462 20.9908 18.8213 20.9908 16.5714V15.3714C20.9908 13.1216 20.9908 11.9967 20.4179 11.2081C20.2329 10.9534 20.0089 10.7294 19.7542 10.5444C18.9656 9.97144 17.8407 9.97144 15.5908 9.97144H15.0916C14.5497 9.97144 14.2788 9.97144 14.0184 9.92518C13.6996 9.86855 13.3921 9.76067 13.1078 9.60574C12.8756 9.47922 12.664 9.30996 12.2408 8.97144V8.97144C11.8177 8.63291 11.6061 8.46365 11.3739 8.33713C11.0896 8.1822 10.7821 8.07433 10.4633 8.01769C10.2029 7.97144 9.93197 7.97144 9.39006 7.97144Z" stroke="black" stroke-opacity="0.8" stroke-width="1.5" stroke-linecap="round" stroke-linejoin="round"/>
</svg>
