<svg width="20" height="21" viewBox="0 0 20 21" fill="none" xmlns="http://www.w3.org/2000/svg">
<path d="M7.49084 10.4175L8.32466 11.5292C8.59639 11.8915 8.73225 12.0727 8.91378 12.1124C8.97187 12.1252 9.03176 12.1274 9.09065 12.1191C9.27466 12.0931 9.42377 11.9227 9.72198 11.5819L12.4908 8.41748M9.99084 19.4175C14.5373 19.4175 17.3755 14.3685 18.5054 9.04038C18.7685 7.79949 18.9001 7.17905 18.6806 6.44556C18.6163 6.2309 18.494 5.95368 18.3786 5.76157C17.9845 5.10514 17.3474 4.73149 16.073 3.98418L12.7225 2.01936C11.5415 1.32681 10.951 0.980542 10.3085 0.912128C10.0973 0.889645 9.88437 0.889645 9.67322 0.912128C9.03068 0.980542 8.44019 1.32681 7.25922 2.01936L3.90869 3.98418C2.63433 4.73149 1.99715 5.10514 1.60307 5.76157C1.48774 5.95368 1.36536 6.2309 1.30112 6.44556C1.0816 7.17905 1.21317 7.79949 1.47631 9.04038C2.60618 14.3685 5.44435 19.4175 9.99084 19.4175Z" stroke="black" stroke-opacity="0.8" stroke-width="1.5" stroke-linecap="round" stroke-linejoin="round"/>
</svg>
