<svg width="24" height="25" viewBox="0 0 24 25" fill="none" xmlns="http://www.w3.org/2000/svg">
<path d="M9.74084 10.5473C9.74084 9.35281 10.7482 8.38452 11.9908 8.38452C13.2335 8.38452 14.2408 9.35281 14.2408 10.5473C14.2408 11.2685 13.8736 11.9073 13.309 12.3002C12.9959 12.5181 12.6198 12.6476 12.3554 12.9224C11.7302 13.5719 11.5615 14.553 12.0085 15.3845M20.9908 12.8845C20.9908 17.8551 16.9614 21.8845 11.9908 21.8845C7.02028 21.8845 2.99084 17.8551 2.99084 12.8845C2.99084 7.91396 7.02028 3.88452 11.9908 3.88452C16.9614 3.88452 20.9908 7.91396 20.9908 12.8845Z" stroke="black" stroke-opacity="0.8" stroke-width="1.5" stroke-linecap="round" stroke-linejoin="round"/>
</svg>
