<svg width="24" height="25" viewBox="0 0 24 25" fill="none" xmlns="http://www.w3.org/2000/svg">
<path d="M14.4905 12.8889C14.4905 14.2696 13.3712 15.3889 11.9905 15.3889C10.6098 15.3889 9.49048 14.2696 9.49048 12.8889C9.49048 11.5082 10.6098 10.3889 11.9905 10.3889C13.3712 10.3889 14.4905 11.5082 14.4905 12.8889Z" stroke="black" stroke-opacity="0.8" stroke-width="1.5"/>
<path d="M9.15293 5.58142C9.69926 4.96675 9.97243 4.65941 10.2471 4.46325C11.2901 3.71854 12.6909 3.71854 13.7338 4.46325C14.0085 4.65941 14.2817 4.96675 14.828 5.58142V5.58142C15.0017 5.77683 15.0886 5.87454 15.1812 5.96246C15.5245 6.28812 15.9399 6.52797 16.3936 6.66242C16.5161 6.69871 16.6441 6.72507 16.9002 6.77778V6.77778C17.7057 6.94358 18.1084 7.02648 18.4157 7.16631C19.5821 7.69716 20.2825 8.9103 20.159 10.1859C20.1265 10.5219 19.9969 10.9121 19.7377 11.6926V11.6926C19.6553 11.9407 19.6141 12.0647 19.5843 12.189C19.4739 12.6491 19.4739 13.1288 19.5843 13.5889C19.6141 13.7131 19.6553 13.8371 19.7377 14.0853V14.0853C19.9969 14.8657 20.1265 15.256 20.159 15.592C20.2825 16.8675 19.5821 18.0807 18.4157 18.6115C18.1084 18.7514 17.7057 18.8343 16.9002 19.0001V19.0001C16.6441 19.0528 16.5161 19.0791 16.3936 19.1154C15.9399 19.2499 15.5245 19.4897 15.1812 19.8154C15.0886 19.9033 15.0017 20.001 14.828 20.1964V20.1964C14.2817 20.8111 14.0085 21.1184 13.7338 21.3146C12.6909 22.0593 11.2901 22.0593 10.2471 21.3146C9.97243 21.1184 9.69926 20.8111 9.15293 20.1964V20.1964C8.97925 20.001 8.8924 19.9033 8.79974 19.8154C8.45647 19.4897 8.04104 19.2499 7.58737 19.1154C7.4649 19.0791 7.33686 19.0528 7.08078 19.0001V19.0001C6.27529 18.8343 5.87255 18.7514 5.56531 18.6115C4.39891 18.0807 3.6985 16.8675 3.82197 15.592C3.8545 15.256 3.98408 14.8657 4.24323 14.0853V14.0853C4.32562 13.8371 4.36682 13.7131 4.39662 13.5889C4.50702 13.1288 4.50702 12.6491 4.39662 12.189C4.36682 12.0647 4.32562 11.9407 4.24323 11.6926V11.6926C3.98408 10.9121 3.8545 10.5219 3.82197 10.1859C3.6985 8.9103 4.39891 7.69716 5.56532 7.16631C5.87255 7.02648 6.2753 6.94358 7.08078 6.77778V6.77778C7.33686 6.72507 7.4649 6.69871 7.58737 6.66242C8.04104 6.52797 8.45647 6.28812 8.79974 5.96246C8.8924 5.87454 8.97925 5.77683 9.15293 5.58142V5.58142Z" stroke="black" stroke-opacity="0.8" stroke-width="1.5"/>
</svg>
