<svg width="20" height="20" viewBox="0 0 20 20" fill="none" xmlns="http://www.w3.org/2000/svg">
<path d="M5.99084 15.9844V12.9844M9.99084 10.9844V15.9844M13.9908 15.9844V8.98438M4.49084 9.48438L5.95545 7.77567C6.90631 6.66633 8.37454 6.14505 9.81207 6.40642V6.40642C11.8029 6.76838 13.8446 6.1306 15.2754 4.69979L15.4908 4.48438M8.19084 18.9844H11.7908C14.7906 18.9844 16.2905 18.9844 17.342 18.2204C17.6816 17.9737 17.9802 17.6751 18.2269 17.3355C18.9908 16.2841 18.9908 14.7842 18.9908 11.7844V8.18437C18.9908 5.18459 18.9908 3.6847 18.2269 2.63323C17.9802 2.29366 17.6816 1.99503 17.342 1.74831C16.2905 0.984375 14.7906 0.984375 11.7908 0.984375H8.19084C5.19106 0.984375 3.69117 0.984375 2.6397 1.74831C2.30012 1.99503 2.0015 2.29366 1.75478 2.63323C0.990845 3.6847 0.990845 5.18459 0.990845 8.18437V11.7844C0.990845 14.7842 0.990845 16.2841 1.75478 17.3355C2.0015 17.6751 2.30012 17.9737 2.6397 18.2204C3.69117 18.9844 5.19106 18.9844 8.19084 18.9844Z" stroke="black" stroke-opacity="0.8" stroke-width="1.5" stroke-linecap="round" stroke-linejoin="round"/>
</svg>
