<svg width="16" height="20" viewBox="0 0 16 20" fill="none" xmlns="http://www.w3.org/2000/svg">
<path d="M7.99084 5.97998H11.4908M4.49084 9.97998H11.4908M4.49084 13.98H11.4908M6.39084 18.98H9.59085C11.8407 18.98 12.9656 18.98 13.7542 18.407C14.0089 18.222 14.2329 17.998 14.4179 17.7433C14.9908 16.9547 14.9908 15.8298 14.9908 13.58V6.37998C14.9908 4.13014 14.9908 3.00522 14.4179 2.21662C14.2329 1.96194 14.0089 1.73797 13.7542 1.55293C12.9656 0.97998 11.8407 0.97998 9.59085 0.97998H6.39084C4.14101 0.97998 3.01609 0.97998 2.22749 1.55293C1.9728 1.73797 1.74883 1.96194 1.56379 2.21662C0.990845 3.00522 0.990845 4.13014 0.990845 6.37998V13.58C0.990845 15.8298 0.990845 16.9547 1.56379 17.7433C1.74883 17.998 1.9728 18.222 2.22749 18.407C3.01609 18.98 4.14101 18.98 6.39084 18.98Z" stroke="black" stroke-opacity="0.8" stroke-width="1.5" stroke-linecap="round" stroke-linejoin="round"/>
</svg>
