<svg width="18" height="18" viewBox="0 0 18 18" fill="none" xmlns="http://www.w3.org/2000/svg">
<path fill-rule="evenodd" clip-rule="evenodd" d="M9.486 1.80009L11.7167 6.21943L16.01 6.64476C16.2187 6.6621 16.3983 6.79926 16.4699 6.99606C16.5415 7.19286 16.4921 7.41334 16.3433 7.56076L12.81 11.0628L14.12 15.8214C14.1748 16.0276 14.1035 16.2467 13.9379 16.3812C13.7723 16.5157 13.5433 16.5406 13.3527 16.4448L9 14.2894L4.65334 16.4421C4.46275 16.5379 4.23368 16.5131 4.06811 16.3786C3.90254 16.244 3.83126 16.0249 3.886 15.8188L5.196 11.0601L1.66 7.55809C1.51126 7.41067 1.46185 7.19019 1.53347 6.9934C1.60508 6.7966 1.78463 6.65944 1.99334 6.64209L6.28667 6.21676L8.514 1.80009C8.6074 1.61768 8.79507 1.50293 9 1.50293C9.20493 1.50293 9.39261 1.61768 9.486 1.80009Z" stroke="#202224" stroke-width="1.2" stroke-linecap="round" stroke-linejoin="round"/>
</svg>
