<svg width="20" height="20" viewBox="0 0 20 20" fill="none" xmlns="http://www.w3.org/2000/svg">
<path d="M0.990845 10.9756V11.7756C0.990845 14.7754 0.990845 16.2753 1.75478 17.3267C2.0015 17.6663 2.30012 17.9649 2.6397 18.2117C3.69117 18.9756 5.19106 18.9756 8.19084 18.9756H11.7908C14.7906 18.9756 16.2905 18.9756 17.342 18.2117C17.6816 17.9649 17.9802 17.6663 18.2269 17.3267C18.9908 16.2753 18.9908 14.7754 18.9908 11.7756V10.9756M0.990845 10.9756V10.9756C0.990845 9.11182 0.990845 8.17994 1.29533 7.44485C1.7013 6.46474 2.48 5.68604 3.46011 5.28007C4.1952 4.97559 5.12708 4.97559 6.99084 4.97559H12.9908C14.8546 4.97559 15.7865 4.97559 16.5216 5.28007C17.5017 5.68604 18.2804 6.46474 18.6864 7.44485C18.9908 8.17994 18.9908 9.11182 18.9908 10.9756V10.9756M0.990845 10.9756H18.9908M7.99084 7.97559H11.9908M5.99084 4.97559V4.97559C5.99084 2.76645 7.78171 0.975586 9.99084 0.975586V0.975586C12.2 0.975586 13.9908 2.76645 13.9908 4.97559V4.97559" stroke="black" stroke-opacity="0.8" stroke-width="1.5" stroke-linecap="round" stroke-linejoin="round"/>
</svg>
