<svg width="16" height="16" viewBox="0 0 16 16" fill="none" xmlns="http://www.w3.org/2000/svg">
<path fill-rule="evenodd" clip-rule="evenodd" d="M14.2222 0H1.76889C0.786667 0 0.00888889 0.795556 0.00888889 1.77778L0 14.2222C0 15.2044 0.786667 16 1.76889 16H14.2222C15.2044 16 16 15.2044 16 14.2222V1.77778C16 0.795556 15.2044 0 14.2222 0ZM14.2222 10.6667H10.6667C10.6667 12.1378 9.47111 13.3333 8 13.3333C6.52889 13.3333 5.33333 12.1378 5.33333 10.6667H1.76889V1.77778H14.2222V10.6667ZM9.77778 6.22222H11.5556L8 9.77778L4.44444 6.22222H6.22222V3.55556H9.77778V6.22222Z" fill="#202224"/>
</svg>
