<svg width="20" height="18" viewBox="0 0 20 18" fill="none" xmlns="http://www.w3.org/2000/svg">
<path d="M7.99503 14.6411V14.6411C7.62959 15.625 8.35732 16.6716 9.40689 16.6716H16.0305C16.578 16.6716 16.8518 16.6716 17.0553 16.6378C18.4427 16.4072 19.3668 15.078 19.1 13.6972C19.0608 13.4946 18.9655 13.238 18.7749 12.7248V12.7248C18.6162 12.2975 18.5368 12.0839 18.4446 11.8975C17.8359 10.6676 16.6393 9.83553 15.2744 9.6932C15.0675 9.67163 14.8397 9.67163 14.3839 9.67163H12.5984C12.3853 9.67163 12.2788 9.67163 12.173 9.67724C11.9066 9.69137 11.6422 9.73212 11.3839 9.79888C11.2813 9.8254 11.1797 9.85748 10.9766 9.92163V9.92163M6.32092 5.17163C5.21635 5.17163 4.32092 4.2762 4.32092 3.17163C4.32092 2.06706 5.21635 1.17163 6.32092 1.17163C7.42549 1.17163 8.32092 2.06706 8.32092 3.17163C8.32092 4.2762 7.42549 5.17163 6.32092 5.17163ZM13.8209 7.17163C12.7164 7.17163 11.8209 6.2762 11.8209 5.17163C11.8209 4.06706 12.7164 3.17163 13.8209 3.17163C14.9255 3.17163 15.8209 4.06706 15.8209 5.17163C15.8209 6.2762 14.9255 7.17163 13.8209 7.17163ZM3.95117 14.6716H8.53052C9.07802 14.6716 9.35177 14.6716 9.55534 14.6378C10.9427 14.4072 11.8668 13.078 11.6 11.6972C11.5608 11.4946 11.4655 11.238 11.2749 10.7248V10.7248C11.1162 10.2975 11.0368 10.0839 10.9446 9.89748C10.3359 8.66758 9.13929 7.83553 7.77442 7.6932C7.56755 7.67163 7.33967 7.67163 6.88391 7.67163H5.59778C5.14202 7.67163 4.91414 7.67163 4.70726 7.6932C3.3424 7.83553 2.14576 8.66758 1.53711 9.89748C1.44486 10.0839 1.36551 10.2975 1.20682 10.7248V10.7248C1.01619 11.238 0.920876 11.4946 0.881716 11.6972C0.614855 13.078 1.53903 14.4072 2.92635 14.6378C3.12992 14.6716 3.40367 14.6716 3.95117 14.6716Z" stroke="black" stroke-opacity="0.8" stroke-width="1.5" stroke-linejoin="round"/>
</svg>
